<?xml version="1.0" encoding="UTF-8"?>
<svg version="1.1" xmlns="http://www.w3.org/2000/svg" width="59" height="60">
<path d="M0 0 C19.47 0 38.94 0 59 0 C59 19.8 59 39.6 59 60 C39.53 60 20.06 60 0 60 C0 40.2 0 20.4 0 0 Z " fill="#7D8291" transform="translate(0,0)"/>
<path d="M0 0 C4.16253275 -0.09938095 8.32442479 -0.17170617 12.48779297 -0.21972656 C13.90197795 -0.23975843 15.31608097 -0.26699248 16.72998047 -0.30175781 C18.77071419 -0.35065489 20.8103469 -0.37305123 22.8515625 -0.390625 C24.68968506 -0.4220459 24.68968506 -0.4220459 26.56494141 -0.45410156 C31.77472701 0.2346121 34.80916199 2.71260755 38.3125 6.5 C42.26899662 12.36147648 41.22126204 19.49801049 41.25 26.3125 C41.270625 27.52357422 41.29125 28.73464844 41.3125 29.98242188 C41.37026812 43.17521734 41.37026812 43.17521734 36.46484375 48.7421875 C31.53325342 52.39988876 29.38839409 53.12348065 23.2421875 53.09765625 C22.24761032 53.09553383 22.24761032 53.09553383 21.23294067 53.09336853 C19.11358137 53.08776754 16.99432741 53.075215 14.875 53.0625 C13.43880361 53.05748512 12.00260556 53.05292219 10.56640625 53.04882812 C7.04423655 53.03779782 3.52212855 53.02053259 0 53 C1.485 52.505 1.485 52.505 3 52 C2.94199219 50.96359375 2.88398438 49.9271875 2.82421875 48.859375 C2.77730962 47.48962844 2.73181068 46.11983308 2.6875 44.75 C2.64560547 44.06808594 2.60371094 43.38617188 2.56054688 42.68359375 C2.51171875 40.671875 2.51171875 40.671875 3 37 C5.51953125 34.515625 5.51953125 34.515625 8 33 C8.56203125 33.32742187 9.1240625 33.65484375 9.703125 33.9921875 C12.26859964 35.11785494 13.96842277 35.2068111 16.75 35.125 C17.54921875 35.10695312 18.3484375 35.08890625 19.171875 35.0703125 C19.77515625 35.04710937 20.3784375 35.02390625 21 35 C21 34.01 21 33.02 21 32 C19.865625 32.185625 18.73125 32.37125 17.5625 32.5625 C16.386875 32.706875 15.21125 32.85125 14 33 C13 32 13 32 12.9375 28.9375 C12.9684375 27.4834375 12.9684375 27.4834375 13 26 C14.32 25.67 15.64 25.34 17 25 C17 25.66 17 26.32 17 27 C18.32 27 19.64 27 21 27 C20.37371577 24.95310804 20.37371577 24.95310804 19 23 C16.58320293 22.29823412 16.58320293 22.29823412 13.875 22.25 C12.96492188 22.19328125 12.05484375 22.1365625 11.1171875 22.078125 C10.06917969 22.03945313 10.06917969 22.03945313 9 22 C9 22.66 9 23.32 9 24 C7 23 5 22 3 21 C3 14.4 3 7.8 3 1 C2.01 0.67 1.02 0.34 0 0 Z " fill="#C1C3CB" transform="translate(16,3)"/>
<path d="M0 0 C19.47 0 38.94 0 59 0 C59 19.8 59 39.6 59 60 C39.53 60 20.06 60 0 60 C0 40.2 0 20.4 0 0 Z M6.34008789 8.6484375 C1.97693825 15.032918 2.29204058 21.48328609 2.4375 29 C2.42654297 30.23234375 2.41558594 31.4646875 2.40429688 32.734375 C2.46225417 39.93653531 3.05013213 44.91937772 7 51 C13.37006942 56.91506447 19.22527182 56.25091889 27.49316406 56.29516602 C29.72784469 56.31232983 31.96102621 56.35620843 34.1953125 56.40039062 C35.62498915 56.41052243 37.05467836 56.41903701 38.484375 56.42578125 C39.78084961 56.44036377 41.07732422 56.45494629 42.41308594 56.4699707 C47.72263204 55.7742944 50.74043013 53.36169715 54.3125 49.5 C58.26899662 43.63852352 57.22126204 36.50198951 57.25 29.6875 C57.270625 28.47642578 57.29125 27.26535156 57.3125 26.01757812 C57.38889772 15.85721176 57.38889772 15.85721176 52.46484375 7.2578125 C45.84880346 2.35077494 40.49951018 2.74760823 32.50683594 2.70483398 C30.27215531 2.68767017 28.03897379 2.64379157 25.8046875 2.59960938 C24.37501085 2.58947757 22.94532164 2.58096299 21.515625 2.57421875 C20.21915039 2.55963623 18.92267578 2.54505371 17.58691406 2.5300293 C12.6882978 3.17186406 9.80247686 5.20998326 6.34008789 8.6484375 Z " fill="#481A8B" transform="translate(0,0)"/>
<path d="M0 0 C3.125 0.5 3.125 0.5 6.0625 2.5625 C8.125 5.5 8.125 5.5 8.125 9.125 C7.125 12.5 7.125 12.5 6 14.5 C2.97700363 16.11226473 0.3661345 15.17268829 -2.875 14.5 C-2.875 16.48 -2.875 18.46 -2.875 20.5 C-3.865 20.5 -4.855 20.5 -5.875 20.5 C-5.95589542 17.72858283 -6.01544062 14.95952181 -6.0625 12.1875 C-6.10020508 11.00897461 -6.10020508 11.00897461 -6.13867188 9.80664062 C-6.14833984 9.04931641 -6.15800781 8.29199219 -6.16796875 7.51171875 C-6.1836792 6.81522217 -6.19938965 6.11872559 -6.21557617 5.40112305 C-5.55116502 1.69232758 -3.53613818 0.61498055 0 0 Z " fill="#9333E6" transform="translate(14.875,23.5)"/>
<path d="M0 0 C1.58206422 0.00574487 3.16410406 0.01876032 4.74609375 0.03515625 C8.92265625 0.06609375 8.92265625 0.06609375 13.18359375 0.09765625 C13.18359375 6.69765625 13.18359375 13.29765625 13.18359375 20.09765625 C10.18359375 16.09765625 10.18359375 16.09765625 8.80859375 12.59765625 C6.79757479 8.2662308 4.40828401 6.21000138 0.18359375 4.09765625 C-1.92015621 3.94324416 -4.02835744 3.84772986 -6.13671875 3.78125 C-7.39355469 3.73935547 -8.65039062 3.69746094 -9.9453125 3.65429688 C-11.26402344 3.61498047 -12.58273438 3.57566406 -13.94140625 3.53515625 C-15.28126376 3.49196113 -16.62110781 3.44834652 -17.9609375 3.40429688 C-21.2459844 3.29794644 -24.53110906 3.19591817 -27.81640625 3.09765625 C-27.81640625 2.76765625 -27.81640625 2.43765625 -27.81640625 2.09765625 C-27.12490479 2.0726001 -26.43340332 2.04754395 -25.72094727 2.02172852 C-22.60672759 1.90613464 -19.49283836 1.78324383 -16.37890625 1.66015625 C-14.74598633 1.60118164 -14.74598633 1.60118164 -13.08007812 1.54101562 C-12.04560547 1.49912109 -11.01113281 1.45722656 -9.9453125 1.4140625 C-8.9869751 1.37740479 -8.0286377 1.34074707 -7.04125977 1.30297852 C-3.6554295 0.99051465 -4.02915793 0.10310025 0 0 Z " fill="#4D1F92" transform="translate(45.81640625,-0.09765625)"/>
<path d="M0 0 C0.33 1.32 0.66 2.64 1 4 C-0.98 4 -2.96 4 -5 4 C-5 5.98 -5 7.96 -5 10 C-3.2984375 10.433125 -3.2984375 10.433125 -1.5625 10.875 C-0.386875 11.24625 0.78875 11.6175 2 12 C3.54163175 15.0832635 3.29747535 17.60878099 3 21 C1.4375 22.9375 1.4375 22.9375 -1 24 C-4.75 24.1875 -4.75 24.1875 -8 24 C-8.33 22.68 -8.66 21.36 -9 20 C-7.02 20 -5.04 20 -3 20 C-2.67 18.35 -2.34 16.7 -2 15 C-3.134375 14.690625 -4.26875 14.38125 -5.4375 14.0625 C-9 13 -9 13 -10 12 C-10.203125 10.0390625 -10.203125 10.0390625 -10.25 7.625 C-10.27578125 6.83351563 -10.3015625 6.04203125 -10.328125 5.2265625 C-10 3 -10 3 -8.71484375 1.22265625 C-5.96801291 -0.73579034 -3.25870715 -0.18445512 0 0 Z " fill="#932CE9" transform="translate(49,25)"/>
<path d="M0 0 C2 2 2 2 2 5 C0.68 5 -0.64 5 -2 5 C-2 4.34 -2 3.68 -2 3 C-2.99 3.33 -3.98 3.66 -5 4 C-5 5.98 -5 7.96 -5 10 C-2.69 10 -0.38 10 2 10 C2 10.99 2 11.98 2 13 C-1.01868434 14.50934217 -3.67297229 14.17510672 -7 14 C-7.99 13.34 -8.98 12.68 -10 12 C-10.3984375 9.94140625 -10.3984375 9.94140625 -10.375 7.5625 C-10.38273437 6.78003906 -10.39046875 5.99757813 -10.3984375 5.19140625 C-9.33735577 -0.64454328 -5.15000318 -0.46818211 0 0 Z " fill="#932FE8" transform="translate(35,25)"/>
<path d="M0 0 C0.66 0.33 1.32 0.66 2 1 C1.9175 2.258125 1.835 3.51625 1.75 4.8125 C1.68277201 6.99323074 1.68277201 6.99323074 2 9 C3.88077873 10.91256712 3.88077873 10.91256712 6 12 C6 12.66 6 13.32 6 14 C4.35 13.67 2.7 13.34 1 13 C1 14.98 1 16.96 1 19 C0.01 19 -0.98 19 -2 19 C-2.05380578 16.20807795 -2.09357669 13.4171859 -2.125 10.625 C-2.14175781 9.8309375 -2.15851562 9.036875 -2.17578125 8.21875 C-2.19335473 6.14507985 -2.10335168 4.07116759 -2 2 C-1.34 1.34 -0.68 0.68 0 0 Z " fill="#932BEC" transform="translate(11,25)"/>
<path d="M0 0 C0.99 0 1.98 0 3 0 C3 0.66 3 1.32 3 2 C4.32 2 5.64 2 7 2 C7.33 4.64 7.66 7.28 8 10 C7.67 9.01 7.34 8.02 7 7 C5.2984375 7.2784375 5.2984375 7.2784375 3.5625 7.5625 C1.7990625 7.7790625 1.7990625 7.7790625 0 8 C-1 7 -1 7 -1.125 4 C-1 1 -1 1 0 0 Z " fill="#B5B5C1" transform="translate(30,28)"/>
<path d="M0 0 C3.53571429 0.53571429 3.53571429 0.53571429 5 2 C5.1875 4.4375 5.1875 4.4375 5 7 C4.34 7.66 3.68 8.32 3 9 C-0.53571429 8.46428571 -0.53571429 8.46428571 -2 7 C-2.1875 4.5625 -2.1875 4.5625 -2 2 C-1.34 1.34 -0.68 0.68 0 0 Z " fill="#8A8C9B" transform="translate(14,27)"/>
<path d="M0 0 C3.82097239 0.53069061 6.06171403 1.49701566 9 4 C9 3.34 9 2.68 9 2 C9.99 2.33 10.98 2.66 12 3 C11.34 3.66 10.68 4.32 10 5 C9.69868391 7.30722032 9.62208455 9.58163271 9.5390625 11.90625 C9 14 9 14 7.0703125 15.1796875 C6.38710938 15.45039062 5.70390625 15.72109375 5 16 C3.29078411 17.5412312 3.29078411 17.5412312 2 19 C2 18.34 2 17.68 2 17 C1.34 16.67 0.68 16.34 0 16 C0.804375 15.649375 1.60875 15.29875 2.4375 14.9375 C5.32021123 13.14988251 5.32021123 13.14988251 6.0625 9.5625 C6.35774005 5.97776757 6.35774005 5.97776757 4.1875 3.6875 C3.465625 3.130625 2.74375 2.57375 2 2 C1.34 1.34 0.68 0.68 0 0 Z " fill="#9A93AF" transform="translate(16,23)"/>
<path d="M0 0 C0.66 0.33 1.32 0.66 2 1 C1.67 1.33 1.34 1.66 1 2 C0.95907063 4.33297433 0.95758277 6.66705225 1 9 C1.66 9 2.32 9 3 9 C2.67 10.32 2.34 11.64 2 13 C0.68 12.34 -0.64 11.68 -2 11 C-2.05399736 9.54207116 -2.09279177 8.08357288 -2.125 6.625 C-2.15980469 5.40683594 -2.15980469 5.40683594 -2.1953125 4.1640625 C-2 2 -2 2 0 0 Z " fill="#9639E7" transform="translate(41,26)"/>
<path d="M0 0 C0.33 0 0.66 0 1 0 C1.33 2.97 1.66 5.94 2 9 C0.02 9.99 0.02 9.99 -2 11 C-3.70921589 12.5412312 -3.70921589 12.5412312 -5 14 C-5 13.34 -5 12.68 -5 12 C-5.66 11.67 -6.32 11.34 -7 11 C-6.21625 10.67 -5.4325 10.34 -4.625 10 C-0.84142777 7.1172783 -0.83052742 4.60565207 0 0 Z " fill="#99A2A3" transform="translate(23,28)"/>
<path d="M0 0 C1.32 0 2.64 0 4 0 C4.66 1.65 5.32 3.3 6 5 C5.01 5.495 5.01 5.495 4 6 C3.67 5.34 3.34 4.68 3 4 C0.98330173 2.86649466 0.98330173 2.86649466 -1 2 C-0.67 1.34 -0.34 0.68 0 0 Z " fill="#9123EA" transform="translate(44,36)"/>
<path d="M0 0 C0 0.99 0 1.98 0 3 C-2.31 3.33 -4.62 3.66 -7 4 C-7 3.01 -7 2.02 -7 1 C-2.25 0 -2.25 0 0 0 Z " fill="#9123EA" transform="translate(37,35)"/>
</svg>
